<svg width="32" height="32" viewBox="0 0 32 32" fill="none" xmlns="http://www.w3.org/2000/svg">
<g filter="url(#filter0_d_5313_9520)">
<path fill-rule="evenodd" clip-rule="evenodd" d="M27.9718 17.0418L27.4331 16.7527C26.4169 16.1938 26.4169 14.8062 27.4331 14.2473L27.9718 13.9582C29.425 13.1585 29.9332 11.3951 29.0897 10.0075L27.5653 7.50214C26.7217 6.1242 24.862 5.6424 23.3985 6.44218L22.8599 6.73126C21.8436 7.29015 20.5733 6.59636 20.5733 5.47859V4.89079C20.5733 3.29122 19.2114 2 17.5244 2H14.4756C12.7886 2 11.4267 3.29122 11.4267 4.89079V5.47859C11.4267 6.58672 10.1564 7.29015 9.14012 6.73126L8.60149 6.44218C7.14821 5.6424 5.27826 6.11456 4.43474 7.50214L2.91033 10.0075C2.06681 11.3854 2.56479 13.1585 4.02823 13.9582L4.56686 14.2473C5.58314 14.8062 5.58314 16.1938 4.56686 16.7527L4.02823 17.0418C2.57495 17.8415 2.06681 19.6049 2.91033 20.9925L4.43474 23.4979C5.27826 24.8758 7.13805 25.3576 8.60149 24.5578L9.14012 24.2687C10.1564 23.7099 11.4267 24.4036 11.4267 25.5214V26.1092C11.4267 27.7088 12.7886 29 14.4756 29H17.5244C19.2114 29 20.5733 27.7088 20.5733 26.1092V25.5214C20.5733 24.4133 21.8436 23.7099 22.8599 24.2687L23.3985 24.5578C24.8518 25.3576 26.7217 24.8854 27.5653 23.4979L29.0897 20.9925C29.9332 19.6146 29.4352 17.8415 27.9718 17.0418ZM16.0102 19.8362C13.4796 19.8362 11.4369 17.8994 11.4369 15.5C11.4369 13.1006 13.4796 11.1638 16.0102 11.1638C18.5407 11.1638 20.5834 13.1006 20.5834 15.5C20.5834 17.8994 18.5407 19.8362 16.0102 19.8362Z" fill="url(#paint0_linear_5313_9520)"/>
<path d="M17.5244 1.5L17.7051 1.50391C19.5612 1.5931 21.0732 3.04962 21.0732 4.89062V5.47852C21.0732 6.17283 21.8975 6.68982 22.6191 6.29297L22.623 6.29102L23.1621 6.00195C24.7978 5.11015 26.8702 5.59599 27.8955 7.09277L27.9922 7.24121V7.24219L29.5166 9.74805C30.5161 11.3923 29.9014 13.4672 28.2129 14.3965L28.208 14.3984L27.6729 14.6846L27.6738 14.6855C27.0032 15.0546 27.004 15.9456 27.6748 16.3145L28.208 16.6016L28.2119 16.6025C29.9137 17.5326 30.5166 19.6204 29.5166 21.2539L29.5156 21.2529L27.9922 23.7578C27.0037 25.3835 24.8351 25.9195 23.1572 24.9961V24.9951L22.623 24.709L22.6191 24.707C21.8999 24.3115 21.0732 24.8341 21.0732 25.5215V26.1094C21.0731 28.0098 19.4621 29.5 17.5244 29.5H14.4756C12.5379 29.5 10.9269 28.0098 10.9268 26.1094V25.5215C10.9268 24.8272 10.1025 24.3102 9.38086 24.707L9.37695 24.709L8.83789 24.998L8.83691 24.9971C7.1484 25.9174 4.99571 25.3708 4.00879 23.7588L4.00781 23.7578L2.4834 21.252C1.48391 19.6077 2.09855 17.5328 3.78711 16.6035L3.79199 16.6016L4.32422 16.3145C4.995 15.9456 4.9968 15.0546 4.32617 14.6855V14.6846L3.79199 14.3984L3.78809 14.3975C2.0863 13.4674 1.48343 11.3796 2.4834 9.74609H2.48438L4.00781 7.24219C4.99631 5.61649 7.16494 5.08054 8.84277 6.00391H8.8418L9.37695 6.29102L9.38086 6.29297C10.1001 6.68848 10.9268 6.16587 10.9268 5.47852V4.89062C10.9269 2.99025 12.5379 1.5 14.4756 1.5H17.5244ZM16.0098 11.6641C13.7301 11.6643 11.9365 13.4017 11.9365 15.5C11.9365 17.5983 13.7302 19.3357 16.0098 19.3359C18.2896 19.3359 20.083 17.5985 20.083 15.5C20.083 13.4015 18.2896 11.6641 16.0098 11.6641Z" stroke="#9E4B02"/>
</g>
<defs>
<filter id="filter0_d_5313_9520" x="1.49902" y="1" width="29.002" height="31" filterUnits="userSpaceOnUse" color-interpolation-filters="sRGB">
<feFlood flood-opacity="0" result="BackgroundImageFix"/>
<feColorMatrix in="SourceAlpha" type="matrix" values="0 0 0 0 0 0 0 0 0 0 0 0 0 0 0 0 0 0 127 0" result="hardAlpha"/>
<feOffset dy="2"/>
<feComposite in2="hardAlpha" operator="out"/>
<feColorMatrix type="matrix" values="0 0 0 0 0.231373 0 0 0 0 0.0392157 0 0 0 0 0 0 0 0 1 0"/>
<feBlend mode="normal" in2="BackgroundImageFix" result="effect1_dropShadow_5313_9520"/>
<feBlend mode="normal" in="SourceGraphic" in2="effect1_dropShadow_5313_9520" result="shape"/>
</filter>
<linearGradient id="paint0_linear_5313_9520" x1="16" y1="29" x2="16" y2="2" gradientUnits="userSpaceOnUse">
<stop stop-color="#F5B20A"/>
<stop offset="1" stop-color="#FFE95C"/>
</linearGradient>
</defs>
</svg>
